<svg xmlns="http://www.w3.org/2000/svg" width="31" height="30" viewBox="0 0 31 30" fill="none">
  <path d="M9.5 14.25C9.08579 14.25 8.75 14.5858 8.75 15C8.75 15.4142 9.08579 15.75 9.5 15.75H14.75V21C14.75 21.4142 15.0858 21.75 15.5 21.75C15.9142 21.75 16.25 21.4142 16.25 21V15.75H21.5C21.9142 15.75 22.25 15.4142 22.25 15C22.25 14.5858 21.9142 14.25 21.5 14.25H16.25V9C16.25 8.58579 15.9142 8.25 15.5 8.25C15.0858 8.25 14.75 8.58579 14.75 9V14.25H9.5ZM29.75 15C29.75 22.8701 23.3701 29.25 15.5 29.25C7.62994 29.25 1.25 22.8701 1.25 15C1.25 7.12994 7.62994 0.75 15.5 0.75C23.3701 0.75 29.75 7.12994 29.75 15Z" stroke="#121212" stroke-opacity="0.5" stroke-width="1.5" stroke-miterlimit="10" stroke-linecap="round" stroke-linejoin="round"/>
</svg>