<svg width="14" height="15" viewBox="0 0 14 15" fill="none" xmlns="http://www.w3.org/2000/svg">
<path d="M11.4 5.59961H6.6C5.71634 5.59961 5 6.31595 5 7.19961V11.9996C5 12.8833 5.71634 13.5996 6.6 13.5996H11.4C12.2837 13.5996 13 12.8833 13 11.9996V7.19961C13 6.31595 12.2837 5.59961 11.4 5.59961Z" fill="white" fill-opacity="0.25"/>
<path d="M3 9.59961H2.6C1.71333 9.59961 1 8.88628 1 7.99961V3.19961C1 2.31294 1.71333 1.59961 2.6 1.59961H7.4C8.28667 1.59961 9 2.31294 9 3.19961V3.59961M6.6 5.59961H11.4C12.2837 5.59961 13 6.31595 13 7.19961V11.9996C13 12.8833 12.2837 13.5996 11.4 13.5996H6.6C5.71634 13.5996 5 12.8833 5 11.9996V7.19961C5 6.31595 5.71634 5.59961 6.6 5.59961Z" stroke="white" stroke-width="1.3" stroke-miterlimit="10" stroke-linecap="round" stroke-linejoin="round"/>
</svg>
